<svg width="28" height="29" viewBox="0 0 28 29" fill="none" xmlns="http://www.w3.org/2000/svg">
<circle cx="14" cy="14.5" r="13.5" stroke="#04CAA6"/>
<path fill-rule="evenodd" clip-rule="evenodd" d="M21 19.573C21 19.7243 20.945 19.8712 20.8444 19.9856L19.0331 22.0469C18.3119 22.7704 17.0806 22.621 15.3331 21.6451C13.8537 20.8198 12.1569 19.4815 10.5556 17.878C7.78812 15.1111 6 12.2723 6 10.6459C6 10.0559 6.22937 9.70241 6.42187 9.5104L8.50125 7.65771C8.62625 7.54708 8.79 7.4905 8.95687 7.50131C9.12375 7.51212 9.27875 7.58905 9.38875 7.71557L12.0975 10.8417C12.2631 11.0325 12.2975 11.3059 12.1844 11.5309L11.1356 13.629L14.8737 17.3681L16.9706 16.3191C17.1962 16.2065 17.4675 16.2396 17.6587 16.4049L20.7831 19.0994C20.9094 19.2087 20.9869 19.3632 20.9987 19.5298C20.9994 19.5444 21 19.559 21 19.573ZM7.25 10.6459C7.25 11.7185 8.68875 14.2438 11.4394 16.9943C12.9619 18.5182 14.5612 19.7822 15.9425 20.5534C17.4444 21.392 18.0331 21.2814 18.1088 21.2051L19.4888 19.6347L17.1575 17.6237L15.03 18.688C14.7894 18.8082 14.4987 18.7605 14.3081 18.5704L9.93375 14.1943C9.7425 14.0029 9.69625 13.7136 9.81625 13.4726L10.8794 11.3453L8.85812 9.01321L7.31937 10.3808C7.2725 10.4399 7.25 10.5175 7.25 10.6459Z" fill="#04CAA6"/>
</svg>
