<svg width="31" height="30" viewBox="0 0 31 30" fill="none" xmlns="http://www.w3.org/2000/svg">
<path fill-rule="evenodd" clip-rule="evenodd" d="M0.942688 0.095871C0.8004 0.146152 0.573138 0.298051 0.437706 0.433483C-0.0246719 0.895861 -0.0039264 0.604369 0.0137131 6.38632C0.0285983 11.2832 0.0342242 11.5207 0.140471 11.7346C0.291198 12.0381 0.560421 12.2963 0.878401 12.4422C1.11018 12.5486 1.28182 12.5662 2.27087 12.5846L3.39898 12.6057V13.8017V14.9976H5.14353H6.88808L6.65256 15.4952L6.41703 15.9927L5.37683 15.9933L4.33662 15.9939V18.631V21.2681H3.40695C2.89569 21.2681 2.33527 21.2947 2.16163 21.3272C1.77444 21.3995 1.43554 21.6279 1.20207 21.9737L1.02555 22.2351L1.00844 24.6525L0.991387 27.0698H0.495664H0V27.9092C0 28.9154 0.0754221 29.1995 0.439288 29.5633C0.894692 30.0188 0.725506 30.0044 5.42471 29.9865C10.0433 29.9689 9.76467 29.9931 10.1976 29.5724C10.5647 29.2158 10.6331 28.9664 10.6349 27.9782L10.6364 27.0991L10.153 27.0822L9.6695 27.0651L9.66692 24.7673C9.66499 23.0511 9.6453 22.4162 9.58915 22.2591C9.46486 21.9113 9.21017 21.6331 8.85785 21.4601L8.52674 21.2974L6.92981 21.2786L5.33288 21.2598V19.0956V16.9315H5.79906H6.26519L6.29883 17.1513C6.39271 17.7647 6.47493 18.0538 6.66979 18.4552C6.9604 19.0539 7.55053 19.6469 8.14852 19.9413C8.96966 20.3455 8.78758 20.3358 15.197 20.3159C20.8309 20.2984 20.9579 20.2956 21.3022 20.1773C22.0779 19.9107 22.6763 19.4744 23.0874 18.8755C23.2528 18.6345 23.5583 18.0102 23.5588 17.9122C23.5589 17.8724 23.5867 17.7404 23.6205 17.6187L23.6819 17.3975L24.6604 17.4136L25.6388 17.4296L25.6543 19.3489L25.6697 21.2681H23.9695H22.2691V25.6341V30H26.1369H30.0047V25.6341V21.2681H28.3053H26.6058V18.8654V16.4627H25.1418H23.6778L23.6434 16.3015C23.6245 16.2129 23.5581 15.9996 23.4958 15.8275C23.4335 15.6554 23.3826 15.5038 23.3826 15.4905C23.3826 15.4773 23.8968 15.4664 24.5254 15.4664H25.6681V12.5656V9.66475H26.8695H28.0709V9.19827V8.73185L27.5874 8.71479L27.1039 8.6978V8.22898V7.76015L28.0415 7.73085C28.9036 7.70389 29.0002 7.68977 29.2402 7.55504C29.545 7.38392 29.8573 6.99937 29.9435 6.68918C29.981 6.55392 30.0042 5.47739 30.0044 3.85883C30.0048 0.893282 30.0016 0.868025 29.5655 0.431901C29.113 -0.0205732 29.2223 -0.0103176 25.0472 0.00820091C21.3975 0.0243753 21.3585 0.0258404 21.1264 0.151016C20.8195 0.316629 20.6044 0.549165 20.4572 0.874295C20.3426 1.12746 20.3378 1.24689 20.3378 3.86305C20.3378 6.47921 20.3426 6.59864 20.4572 6.8518C20.6175 7.20594 20.8328 7.42471 21.185 7.5912C21.4516 7.7172 21.5561 7.72974 22.3424 7.73026L23.2068 7.73085V8.22898V8.7271H22.738H22.2691V9.19592V9.66475H23.4705H24.6719V12.0968V14.5288H23.7085H22.7451L22.3061 14.2139C22.0647 14.0406 21.7369 13.8521 21.5778 13.7948L21.2883 13.6908L21.2564 13.2161C21.1332 11.3825 19.6435 9.8817 17.7567 9.69053C17.0002 9.61388 15.9418 9.88615 15.3064 10.3209C14.9413 10.5708 14.4422 11.0449 14.297 11.2797L14.1801 11.469L13.7561 11.3163C13.3843 11.1823 13.2421 11.1636 12.5997 11.1639C11.9506 11.1643 11.8137 11.1829 11.3989 11.3272C10.8501 11.5181 10.4084 11.7767 9.9675 12.1654C9.65643 12.4396 9.18046 13.0984 9.02868 13.4647C8.98654 13.5665 8.92665 13.6498 8.89565 13.6498C8.86465 13.6498 8.64172 13.7289 8.40022 13.8256L7.96116 14.0014H6.14886H4.33662V13.3034V12.6055L5.49403 12.5855C6.64588 12.5657 6.65291 12.5648 6.95934 12.395C7.29461 12.2092 7.53764 11.933 7.65525 11.6039C7.71421 11.439 7.73103 10.2846 7.73302 6.26161L7.7356 1.12975L7.57444 0.811941C7.39482 0.457862 7.03869 0.152306 6.69393 0.0565484C6.55727 0.0185736 5.48911 -0.00246484 3.8385 0.000230898C1.60731 0.00386429 1.16151 0.0185736 0.942688 0.095871ZM6.56125 1.04887C6.69452 1.12019 6.79795 1.40629 6.79795 1.70347V1.92915H3.8971H0.996251V1.59593C0.996251 1.3345 1.02368 1.23353 1.12365 1.12711L1.25112 0.991501H3.85256C5.43742 0.991501 6.49591 1.01395 6.56125 1.04887ZM28.8729 1.1189L29.0085 1.24637V3.05327V4.86012L25.1553 4.84506L21.3022 4.83L21.2852 3.21842C21.2667 1.46367 21.2815 1.2759 21.452 1.10543C21.5623 0.995076 21.6783 0.991501 25.1516 0.991501H28.7372L28.8729 1.1189ZM6.79795 5.32812V7.73085H3.8971H0.996251V5.32812V2.9254H3.8971H6.79795V5.32812ZM29.0085 6.12313C29.0085 6.52286 28.948 6.64476 28.708 6.72844C28.4442 6.82039 21.8912 6.81875 21.627 6.72669C21.4035 6.6488 21.2729 6.39294 21.2729 6.03324V5.79695H25.1407H29.0085V6.12313ZM26.1369 8.22898V8.7271H25.17H24.2031V8.22898V7.73085H25.17H26.1369V8.22898ZM6.78646 10.0215L6.76865 11.316L6.60421 11.4573L6.43977 11.5986H3.87243C1.36387 11.5986 1.30151 11.5959 1.15067 11.4772L0.996251 11.3557V10.0414V8.7271H3.90027H6.80428L6.78646 10.0215ZM2.93015 10.1643V10.6639L3.88245 10.6478L4.83475 10.6317L4.85174 10.1482L4.8688 9.66475H3.89945H2.93015V10.1643ZM18.1709 10.7545C19.331 11.0952 20.1396 12.0301 20.3032 13.2196C20.3256 13.3822 20.3153 13.7211 20.2803 13.9725C20.2453 14.224 20.2242 14.4373 20.2333 14.4464C20.2425 14.4556 20.4465 14.5041 20.6868 14.5542C20.9271 14.6042 21.2617 14.7128 21.4304 14.7953C21.8375 14.9945 22.3727 15.5835 22.5543 16.0323C23.0715 17.3103 22.399 18.7681 21.088 19.2109C20.7265 19.333 20.6632 19.3342 15.0024 19.3342C9.34156 19.3342 9.27821 19.333 8.91674 19.2109C7.67981 18.7932 6.99521 17.4628 7.38035 16.2254C7.65912 15.3298 8.42946 14.6828 9.38445 14.5422L9.67407 14.4995L9.86863 14.0166C10.1064 13.4264 10.3795 13.0623 10.856 12.6998C11.7746 12.0012 12.8483 11.9197 13.9451 12.4656C14.2499 12.6173 14.5154 12.7486 14.5351 12.7574C14.5548 12.7662 14.6745 12.5684 14.8013 12.3179C15.1951 11.5392 15.9626 10.908 16.7361 10.7266C17.1088 10.6392 17.8259 10.6531 18.1709 10.7545ZM8.53811 22.4058L8.70255 22.5472L8.71919 24.8085L8.73584 27.0698H5.33487H1.9339V24.8684C1.9339 22.6202 1.9441 22.5078 2.16321 22.3395C2.23354 22.2856 3.00294 22.2677 5.31494 22.2663L8.37367 22.2644L8.53811 22.4058ZM29.0085 23.7002V25.1359H26.1076H23.2068V23.7002V22.2644H26.1076H29.0085V23.7002ZM24.2031 23.7002V24.1983H24.6719H25.1407V23.7002V23.202H24.6719H24.2031V23.7002ZM26.1369 23.7002V24.1983H27.1039H28.0709V23.7002V23.202H27.1039H26.1369V23.7002ZM29.0085 27.568V29.0037H26.1076H23.2068V27.568V26.1322H26.1076H29.0085V27.568ZM24.2031 27.568V28.0661H25.17H26.1369V27.568V27.0698H25.17H24.2031V27.568ZM27.1137 27.1089C27.0922 27.1304 27.0746 27.3545 27.0746 27.6071V28.0661H27.5727H28.0709V27.568V27.0698H27.6118C27.3593 27.0698 27.1351 27.0874 27.1137 27.1089ZM9.6695 28.3805C9.6695 28.6099 9.63662 28.7367 9.54802 28.8493L9.42659 29.0037H5.34706H1.26752L1.13186 28.8763C1.02022 28.7714 0.996251 28.6886 0.996251 28.4075V28.0661H5.33288H9.6695V28.3805Z" fill="#222222"/>
<path fill-rule="evenodd" clip-rule="evenodd" d="M0.942688 0.095871C0.8004 0.146152 0.573138 0.298051 0.437706 0.433483C0.41704 0.454149 0.397339 0.473309 0.37856 0.491572C0.330634 0.538183 0.28871 0.578956 0.252069 0.624022C-0.00381621 0.938742 -0.00212525 1.46289 0.0113744 5.64736C0.0121313 5.88197 0.0129253 6.12809 0.0137131 6.38632C0.0285983 11.2832 0.0342242 11.5207 0.140471 11.7346C0.291198 12.0381 0.560421 12.2963 0.878401 12.4422C1.11018 12.5486 1.28182 12.5662 2.27087 12.5846L3.39898 12.6057V12.613H4.33662V12.6055L5.49403 12.5855C6.64588 12.5657 6.65291 12.5648 6.95934 12.395C7.29461 12.2092 7.53764 11.933 7.65525 11.6039C7.71421 11.439 7.73103 10.2846 7.73302 6.26161L7.7356 1.12975L7.57444 0.811941C7.39482 0.457862 7.03869 0.152306 6.69393 0.0565484C6.55727 0.0185736 5.48911 -0.00246484 3.8385 0.000230898C1.60731 0.00386429 1.16151 0.0185736 0.942688 0.095871ZM4.33662 21.2681V21.2541H5.33288V21.2598L6.92981 21.2786L8.52674 21.2974L8.85785 21.4601C9.21017 21.6331 9.46486 21.9113 9.58915 22.2591C9.6453 22.4162 9.66499 23.0511 9.66692 24.7673L9.6695 27.0651L10.153 27.0822L10.6364 27.0991L10.6349 27.9782C10.6331 28.9664 10.5647 29.2158 10.1976 29.5724C10.1749 29.5945 10.1542 29.6153 10.1346 29.635C10.0881 29.6817 10.0481 29.7219 10.0037 29.7566C9.72879 29.9713 9.28743 29.9728 6.11232 29.984C5.89606 29.9848 5.66713 29.9856 5.42471 29.9865C5.27524 29.9871 5.1307 29.9877 4.9909 29.9882C1.47736 30.0019 0.963489 30.0039 0.642891 29.756C0.587967 29.7135 0.538716 29.6637 0.481028 29.6054C0.467629 29.5918 0.453774 29.5778 0.439288 29.5633C0.0754221 29.1995 0 28.9154 0 27.9092V27.0698H0.495664H0.991387L1.00844 24.6525L1.02555 22.2351L1.20207 21.9737C1.43554 21.6279 1.77444 21.3995 2.16163 21.3272C2.33527 21.2947 2.89569 21.2681 3.40695 21.2681H4.33662ZM25.6697 21.2681L25.6696 21.2541H26.6058V21.2681H28.3053H30.0047V25.6341V30H26.1369H22.2691V25.6341V21.2681H23.9695H25.6697ZM22.2691 9.66406H28.0709V9.19827V8.73185L27.5874 8.71479L27.1039 8.6978V8.22898V7.76015L28.0415 7.73085C28.9036 7.70389 29.0002 7.68977 29.2402 7.55504C29.545 7.38392 29.8573 6.99937 29.9435 6.68918C29.981 6.55392 30.0042 5.47739 30.0044 3.85883C30.0048 0.893282 30.0016 0.868025 29.5655 0.431901C29.555 0.421452 29.5449 0.411251 29.535 0.40129C29.4696 0.335608 29.4147 0.280412 29.3531 0.234097C29.0289 -0.00969625 28.5197 -0.00740651 25.3298 0.00693643C25.2378 0.00734978 25.1437 0.00777314 25.0472 0.00820091C21.3975 0.0243753 21.3585 0.0258404 21.1264 0.151016C20.8195 0.316629 20.6044 0.549165 20.4572 0.874295C20.3426 1.12746 20.3378 1.24689 20.3378 3.86305C20.3378 6.47921 20.3426 6.59864 20.4572 6.8518C20.6175 7.20594 20.8328 7.42471 21.185 7.5912C21.4516 7.7172 21.5561 7.72974 22.3424 7.73026L23.2068 7.73085V8.22898V8.7271H22.738H22.2691V9.19592V9.66406ZM9.74194 12.3967V12.613H9.56392C9.62335 12.5367 9.68339 12.4636 9.74194 12.3967ZM6.56125 1.04887C6.69452 1.12019 6.79795 1.40629 6.79795 1.70347V1.92915H3.8971H0.996251V1.59593C0.996251 1.3345 1.02368 1.23353 1.12365 1.12711L1.25112 0.991501H3.85256C5.43742 0.991501 6.49591 1.01395 6.56125 1.04887ZM28.8729 1.1189L29.0085 1.24637V3.05327V4.86012L25.1553 4.84506L21.3022 4.83L21.2852 3.21842C21.2667 1.46367 21.2815 1.2759 21.452 1.10543C21.5623 0.995076 21.6783 0.991501 25.1516 0.991501H28.7372L28.8729 1.1189ZM6.79795 5.32812V7.73085H3.8971H0.996251V5.32812V2.9254H3.8971H6.79795V5.32812ZM29.0085 6.12313C29.0085 6.52286 28.948 6.64476 28.708 6.72844C28.4442 6.82039 21.8912 6.81875 21.627 6.72669C21.4035 6.6488 21.2729 6.39294 21.2729 6.03324V5.79695H25.1407H29.0085V6.12313ZM26.1369 8.22898V8.7271H25.17H24.2031V8.22898V7.73085H25.17H26.1369V8.22898ZM6.78646 10.0215L6.76865 11.316L6.60421 11.4573L6.43977 11.5986H3.87243C1.36387 11.5986 1.30151 11.5959 1.15067 11.4772L0.996251 11.3557V10.0414V8.7271H3.90027H6.80428L6.78646 10.0215ZM2.93015 10.1643V10.6639L3.88245 10.6478L4.83475 10.6317L4.85174 10.1482L4.8688 9.66475H3.89945H2.93015V10.1643ZM8.53811 22.4058L8.70255 22.5472L8.71919 24.8085L8.73584 27.0698H5.33487H1.9339V24.8684C1.9339 22.6202 1.9441 22.5078 2.16321 22.3395C2.23354 22.2856 3.00294 22.2677 5.31494 22.2663L8.37367 22.2644L8.53811 22.4058ZM29.0085 23.7002V25.1359H26.1076H23.2068V23.7002V22.2644H26.1076H29.0085V23.7002ZM24.2031 23.7002V24.1983H24.6719H25.1407V23.7002V23.202H24.6719H24.2031V23.7002ZM26.1369 23.7002V24.1983H27.1039H28.0709V23.7002V23.202H27.1039H26.1369V23.7002ZM29.0085 27.568V29.0037H26.1076H23.2068V27.568V26.1322H26.1076H29.0085V27.568ZM24.2031 27.568V28.0661H25.17H26.1369V27.568V27.0698H25.17H24.2031V27.568ZM27.1137 27.1089C27.0922 27.1304 27.0746 27.3545 27.0746 27.6071V28.0661H27.5727H28.0709V27.568V27.0698H27.6118C27.3593 27.0698 27.1351 27.0874 27.1137 27.1089ZM9.6695 28.3805C9.6695 28.6099 9.63662 28.7367 9.54802 28.8493L9.42659 29.0037H5.34706H1.26752L1.13186 28.8763C1.02022 28.7714 0.996251 28.6886 0.996251 28.4075V28.0661H5.33288H9.6695V28.3805Z" fill="#04CAA6"/>
</svg>
