<svg width="18" height="16" viewBox="0 0 18 16" fill="none" xmlns="http://www.w3.org/2000/svg">
<path d="M3.98232 0.0616918L2.8322 0.00198406C2.47095 -0.0167872 2.11661 0.0981736 1.84355 0.324065C1.28598 0.785179 0.394437 1.67665 0.120604 2.83835C-0.28775 4.5705 0.343324 6.69154 1.97663 8.81258C3.60993 10.9336 6.65371 14.3273 12.036 15.7767C13.7705 16.2438 15.1348 15.9289 16.1875 15.2876C17.0213 14.7797 17.596 13.9645 17.8031 13.0429L17.9867 12.2261C18.0451 11.9665 17.9067 11.703 17.6534 11.5919L13.7664 9.88561C13.5141 9.7749 13.2149 9.84489 13.0452 10.0543L11.5192 11.9383C11.404 12.0806 11.2066 12.137 11.0285 12.0774C9.98347 11.7276 6.483 10.3315 4.56228 6.80798C4.47898 6.65516 4.49969 6.46968 4.61784 6.33934L6.07621 4.73265C6.2252 4.56859 6.26284 4.33792 6.17331 4.13855L4.4978 0.405406C4.4086 0.206665 4.20871 0.0734635 3.98232 0.0616918Z" fill="#04CAA6"/>
</svg>
