<svg width="32" height="32" viewBox="0 0 32 32" fill="none" xmlns="http://www.w3.org/2000/svg">
<path fill-rule="evenodd" clip-rule="evenodd" d="M2.29329 1.10131C1.72107 1.30608 1.23932 1.81345 1.0726 2.3869C0.801468 3.31957 1.31301 4.3471 2.22001 4.69174C2.63576 4.84973 3.25311 4.84369 3.63843 4.67797L3.93283 4.55129L5.02502 5.64348L6.11715 6.73567L6.00184 6.87888C5.93842 6.95767 5.70662 7.2404 5.48667 7.50713C4.12617 9.15753 3.1582 11.2354 2.72639 13.4326L2.60023 14.0743L2.26374 14.2111C1.65126 14.46 1.30738 14.8068 1.10654 15.3783C0.837521 16.1438 1.09229 17.0182 1.72489 17.5007C1.83615 17.5856 2.0772 17.716 2.26057 17.7905L2.5939 17.9259L2.72445 18.5734C3.17508 20.8079 4.16128 22.9114 5.52396 24.5444C5.72339 24.7833 5.93842 25.0437 6.00184 25.123L6.11715 25.2672L5.02502 26.3594L3.93283 27.4516L3.63843 27.3249C3.42927 27.2349 3.22432 27.1983 2.93051 27.1983C2.16408 27.1983 1.5798 27.5427 1.22372 28.2046C1.04176 28.5428 1.02382 28.6203 1.02259 29.0742C1.02154 29.463 1.04903 29.6327 1.14775 29.8466C1.32684 30.2347 1.71111 30.6274 2.09708 30.817C2.37501 30.9535 2.50292 30.9794 2.89803 30.9794C3.3115 30.9794 3.41567 30.9561 3.76119 30.786C4.44296 30.4503 4.80202 29.8583 4.80202 29.0698C4.80202 28.776 4.76538 28.571 4.6754 28.3619L4.54872 28.0675L5.64091 26.9753L6.7331 25.8831L6.87485 25.9985C6.95281 26.0619 7.23719 26.2937 7.50679 26.5137C9.19259 27.8893 11.2404 28.8436 13.43 29.2739L14.0718 29.4001L14.2085 29.7366C14.4575 30.349 14.8043 30.6929 15.3757 30.8938C16.1412 31.1628 17.0156 30.908 17.4981 30.2754C17.583 30.1641 17.714 29.9216 17.7892 29.7366L17.926 29.4001L18.5677 29.2739C20.7534 28.8443 22.8501 27.8679 24.4908 26.5156C24.7588 26.2946 25.0426 26.0619 25.1214 25.9985L25.2646 25.8831L26.3568 26.9753L27.449 28.0675L27.3223 28.3619C27.2323 28.571 27.1957 28.776 27.1957 29.0698C27.1957 29.8583 27.5548 30.4503 28.2365 30.786C28.5821 30.9561 28.6862 30.9794 29.0997 30.9794C29.4948 30.9794 29.6227 30.9535 29.9007 30.817C30.2866 30.6274 30.6709 30.2347 30.85 29.8466C30.9487 29.6327 30.9762 29.463 30.9751 29.0742C30.9739 28.6204 30.9559 28.5427 30.7742 28.2051C30.4124 27.5325 29.8451 27.1983 29.0656 27.1983C28.7734 27.1983 28.5681 27.2351 28.3593 27.3249L28.0649 27.4516L26.9727 26.3594L25.8806 25.2672L25.9959 25.1255C26.0593 25.0475 26.2912 24.7631 26.5112 24.4935C27.8867 22.8077 28.841 20.7599 29.2713 18.5703L29.3975 17.9285L29.734 17.7918C30.3465 17.5428 30.6903 17.196 30.8912 16.6246C31.0373 16.209 31.0373 15.7939 30.8912 15.3783C30.6903 14.8068 30.3465 14.46 29.734 14.2111L29.3975 14.0743L29.2713 13.4326C28.8418 11.2469 27.8653 9.1502 26.513 7.50954C26.292 7.24146 26.0593 6.95767 25.9959 6.87888L25.8806 6.73567L26.9727 5.64348L28.0649 4.55129L28.3593 4.67797C28.5685 4.76795 28.7734 4.80459 29.0672 4.80459C29.8557 4.80459 30.4478 4.44553 30.7834 3.76376C30.9535 3.41824 30.9768 3.31406 30.9768 2.9006C30.9768 2.50549 30.9509 2.37757 30.8145 2.09965C30.6249 1.71368 30.2321 1.32941 29.844 1.15032C29.6302 1.0516 29.4604 1.02411 29.0716 1.02516C28.6178 1.02639 28.5402 1.04433 28.202 1.22629C27.5402 1.58236 27.1957 2.16665 27.1957 2.93308C27.1957 3.22689 27.2323 3.43184 27.3223 3.641L27.449 3.9354L26.3568 5.02759L25.2646 6.11972L25.1205 6.00441C25.0412 5.94098 24.7808 5.72596 24.5418 5.52653C22.9064 4.16192 20.7713 3.16206 18.5677 2.72896L17.926 2.6028L17.7892 2.26631C17.5403 1.65382 17.1935 1.30995 16.622 1.10911C15.8565 0.84009 14.9821 1.09486 14.4996 1.72745C14.4147 1.83872 14.2843 2.07977 14.2098 2.26314L14.0744 2.59647L13.4269 2.72702C11.1949 3.17712 9.20115 4.1074 7.50679 5.48936C7.23719 5.70919 6.95281 5.94098 6.87485 6.00441L6.7331 6.11972L5.64091 5.02759L4.54872 3.9354L4.6754 3.641C4.84112 3.25568 4.84716 2.63833 4.68918 2.22258C4.33363 1.28685 3.22491 0.767985 2.29329 1.10131ZM3.37739 1.99635C3.72549 2.16489 3.92269 2.50607 3.92269 2.93982C3.92269 3.51989 3.51732 3.92526 2.93725 3.92526C2.1635 3.92526 1.67218 3.22467 1.96107 2.53322C2.08254 2.24257 2.20752 2.11184 2.48645 1.98375C2.79497 1.84206 3.06657 1.84587 3.37739 1.99635ZM16.4493 1.98739C16.882 2.18389 17.1406 2.75258 16.9962 3.19014C16.8422 3.65671 16.4779 3.92526 15.9989 3.92526C15.6523 3.92526 15.4282 3.82513 15.2195 3.5771C14.7798 3.05454 14.933 2.29961 15.5397 1.99929C15.8515 1.84493 16.1276 1.84136 16.4493 1.98739ZM29.4671 1.96364C29.7577 2.08511 29.8885 2.21009 30.0165 2.48902C30.341 3.19553 29.8552 3.92526 29.0605 3.92526C28.4804 3.92526 28.075 3.51989 28.075 2.93982C28.075 2.16577 28.7754 1.67464 29.4671 1.96364ZM14.2938 3.78134C14.4796 4.13155 14.8254 4.47162 15.1667 4.63969C15.5604 4.83361 16.4327 4.8359 16.8219 4.64408C17.1593 4.47783 17.5279 4.11443 17.7066 3.77185L17.8455 3.50564L18.126 3.54187C18.6399 3.60823 19.8302 3.93534 20.5006 4.19445C23.9228 5.51709 26.64 8.28863 27.8965 11.7384C28.1055 12.312 28.4023 13.4401 28.4582 13.8727L28.4947 14.1548L28.2235 14.2963C27.8708 14.4804 27.5302 14.8249 27.3606 15.1693C27.2478 15.3984 27.225 15.5378 27.225 16.0014C27.225 16.465 27.2478 16.6045 27.3606 16.8336C27.5302 17.1779 27.8708 17.5225 28.2235 17.7066L28.4947 17.848L28.4582 18.1302C28.4023 18.5628 28.1055 19.6909 27.8965 20.2645C26.4587 24.2119 23.1242 27.2337 19.0785 28.2554C18.7107 28.3483 18.2827 28.4407 18.1276 28.4608L17.8455 28.4972L17.704 28.2261C17.5199 27.8734 17.1754 27.5328 16.831 27.3632C16.4326 27.1669 15.5652 27.1669 15.1667 27.3632C14.8224 27.5328 14.4778 27.8734 14.2937 28.2261L14.1523 28.4972L13.8701 28.4608C13.4375 28.4049 12.3094 28.108 11.7358 27.899C7.82927 26.4761 4.79628 23.1591 3.77508 19.1928C3.66663 18.7717 3.56046 18.2955 3.53913 18.1346L3.50032 17.8419L3.73739 17.7351C4.04498 17.5963 4.47386 17.1649 4.64081 16.826C4.83386 16.4342 4.83145 15.5638 4.63618 15.1673C4.46659 14.823 4.056 14.4115 3.73967 14.2689L3.50032 14.1609L3.53836 13.8648C3.60343 13.3587 3.92627 12.1921 4.19294 11.4995C5.65287 7.70768 8.90558 4.79111 12.804 3.77841C14.1067 3.43993 14.1127 3.43998 14.2938 3.78134ZM15.0023 6.42778C13.1858 6.61901 11.2948 7.40847 9.90215 8.55688C8.91156 9.37372 7.79252 10.7491 7.79199 11.1504C7.7917 11.3712 7.98146 11.5461 8.22122 11.5461C8.43461 11.5461 8.53462 11.459 8.8374 11.009L9.02136 10.7358L9.47638 11.0092C9.7267 11.1596 10.2419 11.4271 10.6214 11.6036C11.1128 11.8322 11.3023 11.9482 11.2798 12.0067C11.181 12.2644 10.954 13.7584 10.8953 14.5375C10.8578 15.0363 10.8174 15.4779 10.8058 15.5187C10.7891 15.5768 10.4067 15.5895 9.039 15.5773L7.29347 15.5618L7.31006 15.21C7.33151 14.7567 7.46429 14.0443 7.63793 13.4514C7.79316 12.9214 7.76555 12.7203 7.52227 12.6094C7.31275 12.5139 7.23109 12.5256 7.06549 12.6746C6.90252 12.8212 6.69347 13.4566 6.52065 14.3307C6.3592 15.1474 6.3762 16.994 6.55278 17.8187C6.98558 19.8403 7.80354 21.3579 9.22378 22.7746C10.2572 23.8055 11.2096 24.442 12.4531 24.9328C17.1141 26.7724 22.3493 24.7706 24.6017 20.2875C24.7709 19.9506 24.9094 19.6325 24.9094 19.5806C24.9094 19.4394 24.7404 19.2253 24.5811 19.1648C24.3056 19.06 24.1707 19.1812 23.8486 19.8232C23.6825 20.1542 23.4176 20.6162 23.2599 20.8499L22.9731 21.2748L22.6446 21.0646C22.3916 20.9028 20.9635 20.1736 20.7365 20.0904C20.7144 20.0823 20.734 19.9174 20.7799 19.7239C20.9118 19.1687 21.0925 17.851 21.1358 17.1299L21.1753 16.4704H22.961H24.7466L24.7128 16.6609C24.6941 16.7657 24.6615 17.0526 24.6402 17.2984C24.6048 17.7076 24.6123 17.7561 24.7295 17.8732C24.9053 18.0491 25.2384 18.0214 25.3844 17.8187C25.6484 17.4521 25.6782 15.3181 25.4354 14.1548C25.0249 12.1875 24.1884 10.6392 22.7739 9.22822C21.1876 7.64578 19.4104 6.76199 17.2312 6.47181C16.669 6.39695 15.5121 6.37408 15.0023 6.42778ZM15.5299 9.61073V11.8961L15.1635 11.864C14.4872 11.8048 13.5708 11.6554 12.9707 11.5064L12.3752 11.3586L12.5134 10.9523C12.9751 9.59479 13.785 8.35739 14.6062 7.75452C14.8481 7.57695 15.3431 7.33701 15.4859 7.3281C15.5101 7.32658 15.5299 8.35376 15.5299 9.61073ZM17.0518 7.54559C17.4618 7.74057 18.1816 8.44796 18.5477 9.01578C18.8749 9.52339 19.2906 10.3827 19.4843 10.9523L19.6225 11.3586L19.0271 11.5064C18.4269 11.6554 17.5105 11.8048 16.8342 11.864L16.4678 11.8961V9.60675V7.31743L16.5997 7.35542C16.6723 7.37629 16.8757 7.46188 17.0518 7.54559ZM13.1812 7.89545C12.6955 8.44872 12.0219 9.67539 11.7121 10.571C11.6356 10.7923 11.5393 10.9867 11.4983 11.0028C11.4213 11.033 9.9793 10.3334 9.73625 10.1479L9.59961 10.0437L10.0912 9.57849C10.6326 9.06613 11.3423 8.56568 12.0021 8.23094C12.4217 8.01809 13.2235 7.68312 13.323 7.67907C13.3505 7.67796 13.2867 7.77533 13.1812 7.89545ZM19.0605 7.81555C20.0548 8.18997 21.1772 8.88968 21.9311 9.60511L22.4083 10.058L21.9442 10.3299C21.367 10.668 20.5742 11.0324 20.4889 10.9987C20.4537 10.9848 20.3628 10.7923 20.287 10.571C20.0489 9.87547 19.4748 8.7824 19.0518 8.2191C18.828 7.92101 18.6556 7.67708 18.6688 7.67708C18.682 7.67708 18.8583 7.7394 19.0605 7.81555ZM23.2955 11.2132C24.0925 12.4359 24.6264 13.9791 24.6884 15.2393L24.7043 15.5618L22.9587 15.5773C21.591 15.5895 21.2086 15.5768 21.192 15.5187C21.1803 15.4779 21.14 15.0363 21.1024 14.5375C21.0439 13.7609 20.817 12.2657 20.7185 12.008C20.6967 11.9511 20.9176 11.8183 21.4649 11.5595C21.8923 11.3571 22.4004 11.0888 22.5939 10.9631C22.7873 10.8375 22.9528 10.7326 22.9615 10.7301C22.9703 10.7275 23.1206 10.9449 23.2955 11.2132ZM12.9212 12.399C13.5837 12.5581 14.595 12.7186 14.9359 12.7186C15.0611 12.7186 15.2459 12.7351 15.3467 12.7552L15.5299 12.7919V14.1915V15.5911H13.6158H11.7016L11.7409 14.9025C11.7837 14.1528 11.9096 13.212 12.0511 12.5826C12.1253 12.253 12.1581 12.1894 12.238 12.2204C12.2914 12.2412 12.5988 12.3215 12.9212 12.399ZM19.9475 12.5867C20.0882 13.2122 20.2141 14.1546 20.2568 14.9025L20.2962 15.5911H18.382H16.4678V14.1877V12.7844L16.717 12.756C16.854 12.7404 17.2431 12.6977 17.5817 12.6613C18.1708 12.5978 19.3933 12.3546 19.6553 12.2488C19.7239 12.2211 19.7976 12.1967 19.8193 12.1947C19.8408 12.1927 19.8986 12.369 19.9475 12.5867ZM3.26425 15.037C3.70667 15.2218 3.92269 15.5383 3.92269 16.0014C3.92269 16.4804 3.65414 16.8448 3.18757 16.9988C2.57895 17.1997 1.87349 16.6642 1.87349 16.0014C1.87349 15.5652 2.19849 15.1315 2.62075 15.0042C2.86655 14.9301 3.02823 14.9383 3.26425 15.037ZM29.6751 15.1559C30.4376 15.6604 30.1561 16.8629 29.2366 17.0292C28.8477 17.0995 28.355 16.8417 28.1609 16.4664C28.0519 16.2556 28.05 15.7506 28.1574 15.5442C28.4505 14.9809 29.143 14.8037 29.6751 15.1559ZM10.8408 16.7782C10.8421 17.4525 11.1415 19.6357 11.2833 20.0052C11.3012 20.0519 11.0625 20.194 10.6214 20.3993C10.2419 20.5758 9.72541 20.844 9.47357 20.9953L9.01567 21.2705L8.70386 20.7903C7.91891 19.5817 7.44161 18.2411 7.29628 16.8368L7.25835 16.4704H9.0492H10.8401L10.8408 16.7782ZM15.5299 17.8407V19.211L15.3467 19.2476C15.2459 19.2678 15.0547 19.2845 14.9217 19.2846C14.438 19.2853 12.6767 19.612 12.238 19.7824C12.1581 19.8135 12.1253 19.7499 12.0511 19.4203C11.9136 18.809 11.7854 17.8609 11.7415 17.1299L11.7018 16.4704H13.6159H15.5299V17.8407ZM20.2562 17.1299C20.2123 17.8609 20.0841 18.809 19.9466 19.4203C19.8724 19.7499 19.8396 19.8135 19.7597 19.7824C19.321 19.612 17.5597 19.2853 17.076 19.2846C16.943 19.2845 16.7518 19.2678 16.651 19.2476L16.4678 19.211V17.8407V16.4704H18.3819H20.2959L20.2562 17.1299ZM15.5299 22.3952V24.6854L15.398 24.6474C14.7683 24.4663 13.9589 23.7763 13.45 22.9871C13.1224 22.4789 12.7071 21.62 12.5128 21.0489L12.3741 20.6409L13.1166 20.4647C13.525 20.3678 14.0966 20.2601 14.3868 20.2253C14.8539 20.1694 15.0249 20.1512 15.4273 20.1144C15.5234 20.1056 15.5299 20.2495 15.5299 22.3952ZM17.6403 20.2277C17.9143 20.2595 18.4727 20.3654 18.8811 20.4632L19.6236 20.6409L19.4849 21.0489C18.8651 22.871 17.6931 24.3329 16.5997 24.6474L16.4678 24.6854V22.3947V20.104L16.8049 20.1369C16.9903 20.1551 17.3662 20.1959 17.6403 20.2277ZM11.7294 21.4826C12.0771 22.4354 12.6967 23.5555 13.1812 24.1074C13.2867 24.2275 13.3577 24.3258 13.3389 24.3258C13.2488 24.3258 12.5186 24.0233 12.0974 23.8114C11.3994 23.4603 10.64 22.932 10.0834 22.4101L9.59052 21.9479L9.76099 21.8355C10.0838 21.6226 11.3971 20.9815 11.4776 20.9976C11.5219 21.0064 11.6352 21.2247 11.7294 21.4826ZM21.0588 21.2105C21.328 21.3349 21.7403 21.5487 21.9749 21.6858L22.4015 21.9349L22.0873 22.2582C21.39 22.9758 20.1133 23.7911 19.0748 24.182C18.8647 24.2611 18.682 24.3258 18.6688 24.3258C18.6556 24.3258 18.8272 24.0829 19.0501 23.786C19.4538 23.2485 19.9797 22.2697 20.2249 21.5999C20.2957 21.4064 20.3756 21.1888 20.4024 21.1162C20.4293 21.0436 20.4778 20.9843 20.5103 20.9843C20.5427 20.9843 20.7895 21.0861 21.0588 21.2105ZM3.45829 28.2109C3.77912 28.4271 3.92269 28.6906 3.92269 29.063C3.92269 29.8368 3.2221 30.3281 2.53065 30.0392C2.24 29.9178 2.10927 29.7928 1.98118 29.5139C1.65718 28.8083 2.13981 28.0795 2.93209 28.0781C3.17725 28.0777 3.31067 28.1114 3.45829 28.2109ZM16.4638 28.1634C16.8392 28.3576 17.097 28.8502 17.0266 29.2392C16.8607 30.1571 15.6566 30.4405 15.1553 29.6797C14.8053 29.1485 14.9489 28.5274 15.5006 28.1867C15.7162 28.0535 16.2273 28.0411 16.4638 28.1634ZM29.6324 28.2233C30.0757 28.4832 30.2386 29.0303 30.0165 29.5139C29.8885 29.7928 29.7577 29.9178 29.4671 30.0392C28.7756 30.3281 28.075 29.8368 28.075 29.063C28.075 28.6906 28.2186 28.4271 28.5394 28.2109C28.8211 28.0211 29.2966 28.0265 29.6324 28.2233Z" fill="#666666" stroke="#666666" stroke-width="0.5"/>
<path fill-rule="evenodd" clip-rule="evenodd" d="M15.0023 6.42772C13.1858 6.61895 11.2949 7.40841 9.90217 8.55682C8.91157 9.37366 7.79253 10.7491 7.792 11.1504C7.79171 11.3711 7.98147 11.5461 8.22124 11.5461C8.43462 11.5461 8.53463 11.459 8.83741 11.009L9.02137 10.7358L9.47639 11.0092C9.72671 11.1595 10.2419 11.427 10.6215 11.6035C11.1128 11.8322 11.3023 11.9482 11.2798 12.0067C11.181 12.2643 10.954 13.7583 10.8953 14.5374C10.8578 15.0363 10.8174 15.4778 10.8058 15.5186C10.7891 15.5767 10.4067 15.5894 9.03901 15.5772L7.29348 15.5617L7.31007 15.21C7.33153 14.7566 7.46431 14.0443 7.63794 13.4513C7.79318 12.9213 7.76556 12.7202 7.52228 12.6094C7.31277 12.5139 7.23111 12.5255 7.0655 12.6746C6.90253 12.8212 6.69348 13.4566 6.52066 14.3306C6.35922 15.1473 6.37622 16.994 6.55279 17.8187C6.9856 19.8402 7.80355 21.3579 9.22379 22.7746C10.2572 23.8055 11.2096 24.442 12.4531 24.9328C17.1141 26.7723 22.3493 24.7705 24.6017 20.2875C24.7709 19.9505 24.9095 19.6324 24.9095 19.5806C24.9095 19.4394 24.7404 19.2252 24.5811 19.1647C24.3056 19.06 24.1708 19.1812 23.8486 19.8232C23.6825 20.1541 23.4176 20.6161 23.2599 20.8498L22.9731 21.2747L22.6446 21.0646C22.3916 20.9028 20.9635 20.1736 20.7365 20.0903C20.7144 20.0822 20.734 19.9173 20.7799 19.7239C20.9118 19.1687 21.0926 17.851 21.1358 17.1299L21.1753 16.4704H22.961H24.7467L24.7128 16.6609C24.6941 16.7657 24.6615 17.0525 24.6402 17.2983C24.6048 17.7075 24.6123 17.756 24.7295 17.8732C24.9053 18.049 25.2384 18.0213 25.3844 17.8187C25.6484 17.452 25.6782 15.3181 25.4354 14.1548C25.0249 12.1875 24.1885 10.6391 22.774 9.22816C21.1876 7.64572 19.4105 6.76193 17.2312 6.47175C16.669 6.39689 15.5121 6.37402 15.0023 6.42772ZM15.5299 9.61067V11.896L15.1635 11.8639C14.4872 11.8048 13.5709 11.6554 12.9707 11.5063L12.3753 11.3585L12.5134 10.9522C12.9751 9.59473 13.785 8.35733 14.6062 7.75446C14.8481 7.57689 15.3431 7.33695 15.4859 7.32804C15.5101 7.32652 15.5299 8.3537 15.5299 9.61067ZM17.0518 7.54553C17.4619 7.74051 18.1816 8.4479 18.5477 9.01572C18.8749 9.52333 19.2906 10.3827 19.4843 10.9522L19.6225 11.3585L19.0271 11.5063C18.4269 11.6554 17.5105 11.8048 16.8342 11.8639L16.4679 11.896V9.60669V7.31737L16.5998 7.35536C16.6723 7.37623 16.8757 7.46182 17.0518 7.54553ZM13.1813 7.89539C12.6955 8.44866 12.0219 9.67533 11.7121 10.5709C11.6356 10.7923 11.5393 10.9866 11.4983 11.0027C11.4214 11.033 9.97931 10.3334 9.73627 10.1479L9.59962 10.0436L10.0912 9.57843C10.6327 9.06607 11.3423 8.56562 12.0021 8.23088C12.4218 8.01803 13.2235 7.68306 13.323 7.67901C13.3505 7.6779 13.2867 7.77527 13.1813 7.89539ZM19.0605 7.81549C20.0548 8.18991 21.1772 8.88962 21.9311 9.60505L22.4083 10.0579L21.9442 10.3299C21.367 10.668 20.5742 11.0323 20.4889 10.9987C20.4537 10.9848 20.3628 10.7923 20.287 10.5709C20.0489 9.87541 19.4748 8.78234 19.0519 8.21904C18.828 7.92095 18.6556 7.67702 18.6688 7.67702C18.682 7.67702 18.8583 7.73934 19.0605 7.81549ZM23.2955 11.2131C24.0925 12.4359 24.6264 13.979 24.6884 15.2393L24.7043 15.5617L22.9587 15.5772C21.591 15.5894 21.2086 15.5767 21.192 15.5186C21.1803 15.4778 21.14 15.0363 21.1024 14.5374C21.044 13.7608 20.817 12.2657 20.7185 12.008C20.6967 11.951 20.9176 11.8183 21.4649 11.5594C21.8923 11.3571 22.4004 11.0888 22.5939 10.9631C22.7873 10.8374 22.9528 10.7325 22.9616 10.73C22.9703 10.7274 23.1206 10.9449 23.2955 11.2131ZM12.9212 12.3989C13.5837 12.5581 14.5951 12.7185 14.9359 12.7185C15.0611 12.7185 15.2459 12.735 15.3467 12.7552L15.5299 12.7918V14.1914V15.591H13.6158H11.7016L11.7409 14.9024C11.7837 14.1527 11.9096 13.2119 12.0511 12.5825C12.1253 12.253 12.1581 12.1893 12.238 12.2204C12.2914 12.2411 12.5988 12.3214 12.9212 12.3989ZM19.9476 12.5866C20.0882 13.2122 20.2141 14.1545 20.2568 14.9024L20.2962 15.591H18.382H16.4679V14.1877V12.7844L16.717 12.7559C16.854 12.7403 17.2431 12.6977 17.5817 12.6612C18.1708 12.5977 19.3933 12.3545 19.6553 12.2487C19.7239 12.221 19.7977 12.1967 19.8193 12.1946C19.8409 12.1926 19.8986 12.369 19.9476 12.5866ZM10.8408 16.7781C10.8421 17.4524 11.1416 19.6356 11.2833 20.0051C11.3012 20.0518 11.0625 20.194 10.6215 20.3992C10.2419 20.5757 9.72542 20.844 9.47358 20.9953L9.01568 21.2705L8.70387 20.7903C7.91892 19.5816 7.44162 18.241 7.29629 16.8367L7.25837 16.4704H9.04921H10.8401L10.8408 16.7781ZM15.5299 17.8406V19.2109L15.3467 19.2476C15.2459 19.2677 15.0547 19.2844 14.9217 19.2846C14.438 19.2853 12.6767 19.612 12.238 19.7824C12.1581 19.8134 12.1253 19.7498 12.0511 19.4202C11.9136 18.8089 11.7854 17.8609 11.7415 17.1299L11.7018 16.4704H13.6159H15.5299V17.8406ZM20.2563 17.1299C20.2123 17.8609 20.0841 18.8089 19.9466 19.4202C19.8725 19.7498 19.8396 19.8134 19.7597 19.7824C19.3211 19.612 17.5598 19.2853 17.0761 19.2846C16.943 19.2844 16.7518 19.2677 16.651 19.2476L16.4679 19.2109V17.8406V16.4704H18.3819H20.2959L20.2563 17.1299ZM15.5299 22.3951V24.6854L15.398 24.6474C14.7683 24.4662 13.9589 23.7763 13.45 22.987C13.1225 22.4788 12.7071 21.6199 12.5128 21.0488L12.3741 20.6408L13.1167 20.4646C13.525 20.3678 14.0966 20.26 14.3868 20.2253C14.8539 20.1694 15.0249 20.1511 15.4273 20.1143C15.5235 20.1055 15.5299 20.2495 15.5299 22.3951ZM17.6403 20.2276C17.9144 20.2594 18.4727 20.3654 18.8811 20.4631L19.6237 20.6408L19.4849 21.0488C18.8652 22.8709 17.6931 24.3328 16.5998 24.6474L16.4679 24.6854V22.3947V20.1039L16.8049 20.1369C16.9904 20.155 17.3662 20.1958 17.6403 20.2276ZM11.7294 21.4825C12.0771 22.4353 12.6967 23.5555 13.1813 24.1074C13.2867 24.2275 13.3577 24.3257 13.339 24.3257C13.2489 24.3257 12.5187 24.0232 12.0974 23.8114C11.3994 23.4603 10.64 22.932 10.0834 22.4101L9.59053 21.9478L9.761 21.8354C10.0838 21.6225 11.3972 20.9814 11.4776 20.9975C11.5219 21.0064 11.6352 21.2246 11.7294 21.4825ZM21.0588 21.2104C21.328 21.3348 21.7403 21.5487 21.9749 21.6857L22.4015 21.9349L22.0873 22.2582C21.39 22.9758 20.1133 23.791 19.0748 24.1819C18.8647 24.261 18.682 24.3257 18.6688 24.3257C18.6556 24.3257 18.8272 24.0828 19.0502 23.7859C19.4538 23.2485 19.9797 22.2696 20.2249 21.5998C20.2957 21.4063 20.3756 21.1887 20.4025 21.1162C20.4293 21.0436 20.4778 20.9843 20.5103 20.9843C20.5427 20.9843 20.7895 21.086 21.0588 21.2104Z" fill="#04CAA6" stroke="#04CAA6" stroke-width="0.5"/>
</svg>
